<?xml version="1.0" encoding="utf-8"?>
<!-- Generator: Adobe Illustrator 27.5.0, SVG Export Plug-In . SVG Version: 6.00 Build 0)  -->
<svg version="1.1" xmlns="http://www.w3.org/2000/svg" xmlns:xlink="http://www.w3.org/1999/xlink" x="0px" y="0px"
	 viewBox="0 0 1122 1122" style="enable-background:new 0 0 1122 1122;" xml:space="preserve">
<g id="Bg">
	<rect style="fill:#FFFFFF;" width="1122" height="1122"/>
</g>
<g id="Object">
	<g>
		<path style="fill:#82BFAB;" d="M342.36,813.021v131.487l42.631-36.419l42.643,36.419V839.063h-57.658h-1.58
			C354.004,839.063,342.36,827.398,342.36,813.021z"/>
		<path style="fill:#616E7D;" d="M427.633,273.492v539.529v26.042h337.965c14.386,0,26.042-11.665,26.042-26.042V299.534
			c0-14.376-11.656-26.042-26.042-26.042H427.633z M750.758,510.282H468.515v-15.463h282.243V510.282z M750.758,461.717H468.515
			v-50.078h282.243V461.717z"/>
		<path style="fill:#AAD4C8;" d="M342.36,299.534v513.487c0,14.377,11.644,26.042,26.036,26.042h1.58h57.658v-26.042V273.492
			h-57.658h-1.58C354.004,273.492,342.36,285.157,342.36,299.534z"/>
		<rect x="468.515" y="411.639" style="fill:#FFFFFF;" width="282.243" height="50.078"/>
		<rect x="468.515" y="494.819" style="fill:#FFFFFF;" width="282.243" height="15.463"/>
	</g>
</g>
</svg>
