<?xml version="1.0" encoding="utf-8"?>
<!-- Generator: Adobe Illustrator 27.5.0, SVG Export Plug-In . SVG Version: 6.00 Build 0)  -->
<svg version="1.1" xmlns="http://www.w3.org/2000/svg" xmlns:xlink="http://www.w3.org/1999/xlink" x="0px" y="0px"
	 viewBox="0 0 1122 1122" style="enable-background:new 0 0 1122 1122;" xml:space="preserve">
<g id="Bg">
	<rect style="fill:#FFFFFF;" width="1122" height="1122"/>
</g>
<g id="Object">
	<g>
		<polygon style="fill:#FFFFFF;" points="621.755,643.267 628.327,635.796 614.898,635.796 		"/>
		<path style="fill:#FFFFFF;" d="M373.953,311.257v499.479h282.135v-71.193c0-3.071,1.253-6.073,3.426-8.245
			c2.172-2.17,5.168-3.414,8.242-3.414h74.198V570.443l-104.053,118.26c-3.952,4.484-9.629,7.084-15.814,7.147
			c-5.889,0-11.554-2.487-15.53-6.826l-48.846-53.228H416.754v-34.621h241.459v0.656l20.625-23.436H416.754v-34.624H698.21v12.6
			l43.744-49.712V311.257H373.953z M698.21,520.991H416.754v-34.621H698.21V520.991z M698.21,463.588H457.762v-34.621H698.21
			V463.588z"/>
		<path style="fill:#616E7D;" d="M741.955,727.884h-74.198c-3.075,0-6.07,1.244-8.242,3.414c-2.173,2.172-3.426,5.174-3.426,8.245
			v71.193H373.953V311.257h368.002V506.66l23.325-26.505V299.598c0-3.071-1.247-6.073-3.413-8.246
			c-2.173-2.17-5.181-3.414-8.249-3.414h-391.32c-3.081,0-6.076,1.244-8.249,3.414c-2.173,2.173-3.414,5.175-3.414,8.246v522.804
			c0,3.071,1.241,6.073,3.414,8.246c2.173,2.17,5.168,3.414,8.249,3.414h320.039c3.068,0,6.046-1.223,8.213-3.386l35.955-35.719
			l0.048-0.048l35.326-35.474c2.173-2.179,3.402-5.162,3.402-8.231V543.935l-23.325,26.508V727.884z M679.419,811.154v-59.951
			h62.112L679.419,811.154z"/>
		<polygon style="fill:#FFFFFF;" points="679.419,811.154 741.531,751.203 679.419,751.203 		"/>
		<rect x="457.762" y="428.967" style="fill:#82BFAB;" width="240.448" height="34.621"/>
		<rect x="416.754" y="486.371" style="fill:#82BFAB;" width="281.457" height="34.621"/>
		<polygon style="fill:#82BFAB;" points="416.754,543.771 416.754,578.395 678.838,578.395 698.21,556.372 698.21,543.771 		"/>
		<path style="fill:#82BFAB;" d="M416.754,601.175v34.621h140.958l-8.388-9.142l-10.319-11.247
			c-1.725-1.888-2.015-4.682-0.708-6.885c1.059-1.789,2.972-2.848,4.987-2.848l1.392,0.173l53.524,13.181
			c1.108,0.279,2.106,0.874,2.881,1.716l13.817,15.051h13.43l29.885-33.964v-0.656H416.754z"/>
		<path style="fill:#AAD4C8;" d="M825.388,466.834l-22.913-20.165c-1.059-0.941-2.421-1.453-3.831-1.453l-0.369,0.012
			c-1.543,0.094-2.978,0.802-3.989,1.961l-29.007,32.965l-23.325,26.505l-43.744,49.712l-19.373,22.023l-20.625,23.436
			l-29.885,33.964l-6.572,7.471l-6.857-7.471l-13.817-15.051c-0.775-0.842-1.773-1.437-2.881-1.716l-53.524-13.181l-1.392-0.173
			c-2.015,0-3.928,1.059-4.987,2.848c-1.308,2.203-1.017,4.996,0.708,6.885l10.319,11.247l8.388,9.142l48.846,53.228
			c3.976,4.339,9.641,6.826,15.53,6.826c6.185-0.063,11.862-2.663,15.814-7.147l104.053-118.26l23.325-26.508l60.635-68.915
			C828.039,472.617,827.803,468.949,825.388,466.834z"/>
	</g>
</g>
</svg>
